<?xml version="1.0" encoding="UTF-8"?>
<!DOCTYPE score-partwise PUBLIC "-//Recordare//DTD MusicXML 3.1 Partwise//EN" "http://www.musicxml.org/dtds/partwise.dtd">
<score-partwise version="3.1">
	<work>
		<work-title>Missa Super Sancta Maria Sucurre &quot;Sanctus&quot;</work-title>
	</work>
	<identification>
		<creator type="composer">Pedro Fernández Buch</creator>
		<encoding>
			<software>MuseScore 3.3.4</software>
			<encoding-date>2024-02-22</encoding-date>
			<supports element="accidental" type="yes"/>
			<supports element="beam" type="yes"/>
			<supports element="print" attribute="new-page" type="yes" value="yes"/>
			<supports element="print" attribute="new-system" type="yes" value="yes"/>
			<supports element="stem" type="yes"/>
		</encoding>
	</identification>
	<defaults>
		<scaling>
			<millimeters>5.8173</millimeters>
			<tenths>40</tenths>
		</scaling>
		<page-layout>
			<page-height>2042.18</page-height>
			<page-width>1443.97</page-width>
			<page-margins type="even">
				<left-margin>68.7604</left-margin>
				<right-margin>68.7604</right-margin>
				<top-margin>68.7604</top-margin>
				<bottom-margin>137.521</bottom-margin>
			</page-margins>
			<page-margins type="odd">
				<left-margin>68.7604</left-margin>
				<right-margin>68.7604</right-margin>
				<top-margin>68.7604</top-margin>
				<bottom-margin>137.521</bottom-margin>
			</page-margins>
		</page-layout>
		<word-font font-family="FreeSerif" font-size="10"/>
		<lyric-font font-family="Finale Lyrics" font-size="8.2"/>
	</defaults>
	<credit page="1">
		<credit-words default-x="1375.21" default-y="1770.42" justify="right" valign="bottom" font-size="10.2">Pedro Fernández Buch
</credit-words>
		<credit-words>María Elena Cuenca (ed.)</credit-words>
	</credit>
	<credit page="1">
		<credit-words default-x="721.984" default-y="1973.42" justify="center" valign="top" font-style="italic" font-size="20.4">Missa Super Sancta Maria Sucurre</credit-words>
	</credit>
	<credit page="1">
		<credit-words default-x="721.984" default-y="1905.42" justify="center" valign="top" font-size="15.3">Sanctus
</credit-words>
		<credit-words font-size="10.2">(a 4 voces)</credit-words>
	</credit>
	<part-list>
		<part-group type="start" number="1">
			<group-symbol>bracket</group-symbol>
		</part-group>
		<score-part id="P1">
			<part-name>Superius</part-name>
			<part-abbreviation>S</part-abbreviation>
			<score-instrument id="P1-I1">
				<instrument-name>SmartMusic SoftSynth</instrument-name>
			</score-instrument>
			<midi-device id="P1-I1" port="1"></midi-device>
			<midi-instrument id="P1-I1">
				<midi-channel>1</midi-channel>
				<midi-program>53</midi-program>
				<volume>79.5276</volume>
				<pan>-70</pan>
			</midi-instrument>
		</score-part>
		<score-part id="P2">
			<part-name>Altus</part-name>
			<part-abbreviation>A</part-abbreviation>
			<score-instrument id="P2-I1">
				<instrument-name>SmartMusic SoftSynth</instrument-name>
			</score-instrument>
			<midi-device id="P2-I1" port="1"></midi-device>
			<midi-instrument id="P2-I1">
				<midi-channel>2</midi-channel>
				<midi-program>53</midi-program>
				<volume>79.5276</volume>
				<pan>-21</pan>
			</midi-instrument>
		</score-part>
		<score-part id="P3">
			<part-name>Tenor</part-name>
			<part-abbreviation>T</part-abbreviation>
			<score-instrument id="P3-I1">
				<instrument-name>SmartMusic SoftSynth</instrument-name>
			</score-instrument>
			<midi-device id="P3-I1" port="1"></midi-device>
			<midi-instrument id="P3-I1">
				<midi-channel>3</midi-channel>
				<midi-program>53</midi-program>
				<volume>79.5276</volume>
				<pan>27</pan>
			</midi-instrument>
		</score-part>
		<score-part id="P4">
			<part-name>Bassus</part-name>
			<part-abbreviation>B</part-abbreviation>
			<score-instrument id="P4-I1">
				<instrument-name>SmartMusic SoftSynth</instrument-name>
			</score-instrument>
			<midi-device id="P4-I1" port="1"></midi-device>
			<midi-instrument id="P4-I1">
				<midi-channel>4</midi-channel>
				<midi-program>53</midi-program>
				<volume>79.5276</volume>
				<pan>78</pan>
			</midi-instrument>
		</score-part>
		<part-group type="stop" number="1"/>
	</part-list>
	<part id="P1">
		<measure number="1" width="439.57">
			<print>
				<system-layout>
					<system-margins>
						<left-margin>97.84</left-margin>
						<right-margin>0.00</right-margin>
					</system-margins>
					<top-system-distance>273.00</top-system-distance>
				</system-layout>
			</print>
			<attributes>
				<divisions>2</divisions>
				<key>
					<fifths>-1</fifths>
					<mode>major</mode>
				</key>
				<time>
					<beats>4</beats>
					<beat-type>2</beat-type>
				</time>
				<clef>
					<sign>G</sign>
					<line>2</line>
				</clef>
			</attributes>
			<direction placement="above">
				<direction-type>
					<metronome parentheses="no" default-x="-39.28" relative-y="20.00">
						<beat-unit>quarter</beat-unit>
						<per-minute>150</per-minute>
					</metronome>
				</direction-type>
				<sound tempo="150"/>
			</direction>
			<note>
				<rest/>
				<duration>8</duration>
				<voice>1</voice>
				<type>whole</type>
			</note>
			<note default-x="249.60" default-y="-10.00">
				<pitch>
					<step>D</step>
					<octave>5</octave>
				</pitch>
				<duration>8</duration>
				<tie type="start"/>
				<voice>1</voice>
				<type>whole</type>
				<notations>
					<tied type="start"/>
				</notations>
				<lyric number="1" default-y="-40.00" relative-y="-30.00">
					<syllabic>begin</syllabic>
					<text font-family="Times New Roman">San</text>
				</lyric>
			</note>
		</measure>
		<measure number="2" width="385.16">
			<note default-x="13.32" default-y="-10.00">
				<pitch>
					<step>D</step>
					<octave>5</octave>
				</pitch>
				<duration>8</duration>
				<tie type="stop"/>
				<voice>1</voice>
				<type>whole</type>
				<notations>
					<tied type="stop"/>
				</notations>
			</note>
			<note default-x="185.99" default-y="-15.00">
				<pitch>
					<step>C</step>
					<alter>1</alter>
					<octave>5</octave>
				</pitch>
				<duration>8</duration>
				<tie type="start"/>
				<voice>1</voice>
				<type>whole</type>
				<accidental>sharp</accidental>
				<notations>
					<tied type="start"/>
				</notations>
				<lyric number="1" default-x="0.49" default-y="-40.00" relative-y="-30.00">
					<syllabic>end</syllabic>
					<text font-family="Times New Roman">ctus,</text>
					<extend/>
				</lyric>
			</note>
		</measure>
		<measure number="3" width="383.88">
			<note default-x="13.32" default-y="-15.00">
				<pitch>
					<step>C</step>
					<alter>1</alter>
					<octave>5</octave>
				</pitch>
				<duration>8</duration>
				<tie type="stop"/>
				<voice>1</voice>
				<type>whole</type>
				<notations>
					<tied type="stop"/>
				</notations>
			</note>
			<note default-x="196.14" default-y="-10.00">
				<pitch>
					<step>D</step>
					<octave>5</octave>
				</pitch>
				<duration>8</duration>
				<tie type="start"/>
				<voice>1</voice>
				<type>whole</type>
				<notations>
					<tied type="start"/>
				</notations>
				<lyric number="1" default-y="-40.00" relative-y="-30.00">
					<syllabic>begin</syllabic>
					<text font-style="italic" font-family="Times New Roman">San</text>
				</lyric>
			</note>
		</measure>
		<measure number="4" width="302.19">
			<print new-system="yes">
				<system-layout>
					<system-margins>
						<left-margin>33.32</left-margin>
						<right-margin>0.00</right-margin>
					</system-margins>
					<system-distance>139.65</system-distance>
				</system-layout>
			</print>
			<note default-x="80.47" default-y="-10.00">
				<pitch>
					<step>D</step>
					<octave>5</octave>
				</pitch>
				<duration>16</duration>
				<tie type="stop"/>
				<voice>1</voice>
				<type>breve</type>
				<notations>
					<tied type="stop"/>
				</notations>
			</note>
		</measure>
		<measure number="5" width="200.06">
			<note default-x="14.89" default-y="0.00">
				<pitch>
					<step>F</step>
					<octave>5</octave>
				</pitch>
				<duration>16</duration>
				<voice>1</voice>
				<type>breve</type>
			</note>
		</measure>
		<measure number="6" width="213.89">
			<note default-x="13.32" default-y="-5.00">
				<pitch>
					<step>E</step>
					<octave>5</octave>
				</pitch>
				<duration>8</duration>
				<voice>1</voice>
				<type>whole</type>
				<lyric number="1" default-x="11.36" default-y="-40.00" relative-y="-30.00">
					<syllabic>end</syllabic>
					<text font-style="italic" font-family="Times New Roman">ctus,</text>
				</lyric>
			</note>
			<note default-x="90.49" default-y="0.00">
				<pitch>
					<step>F</step>
					<octave>5</octave>
				</pitch>
				<duration>6</duration>
				<voice>1</voice>
				<type>half</type>
				<dot/>
				<stem>down</stem>
				<lyric number="1" default-y="-40.00" relative-y="-30.00">
					<syllabic>begin</syllabic>
					<text font-style="italic" font-family="Times New Roman">San</text>
				</lyric>
			</note>
			<note default-x="178.56" default-y="-5.00">
				<pitch>
					<step>E</step>
					<octave>5</octave>
				</pitch>
				<duration>2</duration>
				<voice>1</voice>
				<type>quarter</type>
				<stem>down</stem>
			</note>
		</measure>
		<measure number="7" width="277.73">
			<note default-x="13.12" default-y="-10.00">
				<pitch>
					<step>D</step>
					<octave>5</octave>
				</pitch>
				<duration>2</duration>
				<voice>1</voice>
				<type>quarter</type>
				<stem>down</stem>
			</note>
			<note default-x="51.80" default-y="-15.00">
				<pitch>
					<step>C</step>
					<alter>1</alter>
					<octave>5</octave>
				</pitch>
				<duration>2</duration>
				<voice>1</voice>
				<type>quarter</type>
				<accidental>sharp</accidental>
				<stem>down</stem>
			</note>
			<note default-x="90.11" default-y="-10.00">
				<pitch>
					<step>D</step>
					<octave>5</octave>
				</pitch>
				<duration>4</duration>
				<voice>1</voice>
				<type>half</type>
				<stem>down</stem>
			</note>
			<note default-x="152.00" default-y="-15.00">
				<pitch>
					<step>C</step>
					<alter>1</alter>
					<octave>5</octave>
				</pitch>
				<duration>4</duration>
				<voice>1</voice>
				<type>half</type>
				<stem>down</stem>
				<lyric number="1" default-x="8.40" default-y="-40.00" relative-y="-30.00">
					<syllabic>end</syllabic>
					<text font-style="italic" font-family="Times New Roman">ctus,</text>
				</lyric>
			</note>
			<note default-x="213.88" default-y="-10.00">
				<pitch>
					<step>D</step>
					<octave>5</octave>
				</pitch>
				<duration>4</duration>
				<tie type="start"/>
				<voice>1</voice>
				<type>half</type>
				<stem>down</stem>
				<notations>
					<tied type="start"/>
				</notations>
				<lyric number="1" default-y="-40.00" relative-y="-30.00">
					<syllabic>begin</syllabic>
					<text font-family="Times New Roman">Do</text>
				</lyric>
			</note>
		</measure>
		<measure number="8" width="279.27">
			<note default-x="16.28" default-y="-10.00">
				<pitch>
					<step>D</step>
					<octave>5</octave>
				</pitch>
				<duration>4</duration>
				<tie type="stop"/>
				<voice>1</voice>
				<type>half</type>
				<stem>down</stem>
				<notations>
					<tied type="stop"/>
				</notations>
			</note>
			<note default-x="74.29" default-y="-15.00">
				<pitch>
					<step>C</step>
					<alter>1</alter>
					<octave>5</octave>
				</pitch>
				<duration>4</duration>
				<voice>1</voice>
				<type>half</type>
				<accidental>sharp</accidental>
				<stem>down</stem>
				<lyric number="1" default-x="6.94" default-y="-40.00" relative-y="-30.00">
					<syllabic>middle</syllabic>
					<text font-family="Times New Roman">mi</text>
				</lyric>
			</note>
			<note default-x="132.29" default-y="-10.00">
				<pitch>
					<step>D</step>
					<octave>5</octave>
				</pitch>
				<duration>4</duration>
				<voice>1</voice>
				<type>half</type>
				<stem>down</stem>
				<lyric number="1" default-x="6.94" default-y="-40.00" relative-y="-30.00">
					<syllabic>end</syllabic>
					<text font-family="Times New Roman">nus</text>
				</lyric>
			</note>
			<note default-x="204.80" default-y="-25.00">
				<pitch>
					<step>A</step>
					<octave>4</octave>
				</pitch>
				<duration>4</duration>
				<voice>1</voice>
				<type>half</type>
				<stem>up</stem>
				<lyric number="1" default-y="-40.00" relative-y="-30.00">
					<syllabic>begin</syllabic>
					<text font-family="Times New Roman">De</text>
				</lyric>
			</note>
		</measure>
		<measure number="9" width="360.48">
			<print new-system="yes">
				<system-layout>
					<system-margins>
						<left-margin>33.32</left-margin>
						<right-margin>0.00</right-margin>
					</system-margins>
					<system-distance>139.65</system-distance>
				</system-layout>
			</print>
			<note default-x="80.47" default-y="-15.00">
				<pitch>
					<step>C</step>
					<octave>5</octave>
				</pitch>
				<duration>4</duration>
				<voice>1</voice>
				<type>half</type>
				<stem>down</stem>
			</note>
			<note default-x="149.99" default-y="-20.00">
				<pitch>
					<step>B</step>
					<alter>-1</alter>
					<octave>4</octave>
				</pitch>
				<duration>4</duration>
				<voice>1</voice>
				<type>half</type>
				<stem>down</stem>
			</note>
			<note default-x="219.50" default-y="-25.00">
				<pitch>
					<step>A</step>
					<octave>4</octave>
				</pitch>
				<duration>4</duration>
				<voice>1</voice>
				<type>half</type>
				<stem>up</stem>
				<lyric number="1" default-x="6.22" default-y="-43.06" relative-y="-30.00">
					<syllabic>end</syllabic>
					<text font-family="Times New Roman">us</text>
				</lyric>
			</note>
			<note default-x="289.01" default-y="-20.00">
				<pitch>
					<step>B</step>
					<alter>-1</alter>
					<octave>4</octave>
				</pitch>
				<duration>4</duration>
				<tie type="start"/>
				<voice>1</voice>
				<type>half</type>
				<stem>down</stem>
				<notations>
					<tied type="start"/>
				</notations>
				<lyric number="1" default-y="-43.06" relative-y="-30.00">
					<syllabic>begin</syllabic>
					<text font-family="Times New Roman">Sa</text>
				</lyric>
			</note>
		</measure>
		<measure number="10" width="331.51">
			<note default-x="18.99" default-y="-20.00">
				<pitch>
					<step>B</step>
					<alter>-1</alter>
					<octave>4</octave>
				</pitch>
				<duration>2</duration>
				<tie type="stop"/>
				<voice>1</voice>
				<type>quarter</type>
				<stem>down</stem>
				<notations>
					<tied type="stop"/>
				</notations>
			</note>
			<note default-x="62.17" default-y="-15.00">
				<pitch>
					<step>C</step>
					<octave>5</octave>
				</pitch>
				<duration>2</duration>
				<voice>1</voice>
				<type>quarter</type>
				<stem>down</stem>
				<lyric number="1" default-x="6.58" default-y="-43.06" relative-y="-30.00">
					<syllabic>middle</syllabic>
					<text font-family="Times New Roman">ba</text>
				</lyric>
			</note>
			<note default-x="105.00" default-y="-10.00">
				<pitch>
					<step>D</step>
					<octave>5</octave>
				</pitch>
				<duration>4</duration>
				<voice>1</voice>
				<type>half</type>
				<stem>down</stem>
				<lyric number="1" default-x="8.88" default-y="-43.06" relative-y="-30.00">
					<syllabic>end</syllabic>
					<text font-family="Times New Roman">oth,</text>
				</lyric>
			</note>
			<note default-x="171.13" default-y="-10.00">
				<pitch>
					<step>D</step>
					<octave>5</octave>
				</pitch>
				<duration>8</duration>
				<tie type="start"/>
				<voice>1</voice>
				<type>whole</type>
				<notations>
					<tied type="start"/>
				</notations>
				<lyric number="1" default-y="-43.06" relative-y="-30.00">
					<syllabic>begin</syllabic>
					<text font-family="Times New Roman">Sa</text>
				</lyric>
			</note>
		</measure>
		<measure number="11" width="283.55">
			<note default-x="10.36" default-y="-10.00">
				<pitch>
					<step>D</step>
					<octave>5</octave>
				</pitch>
				<duration>4</duration>
				<tie type="stop"/>
				<voice>1</voice>
				<type>half</type>
				<stem>down</stem>
				<notations>
					<tied type="stop"/>
				</notations>
			</note>
			<note default-x="75.21" default-y="-15.00">
				<pitch>
					<step>C</step>
					<octave>5</octave>
				</pitch>
				<duration>8</duration>
				<voice>1</voice>
				<type>whole</type>
			</note>
			<note default-x="213.79" default-y="-20.00">
				<pitch>
					<step>B</step>
					<alter>-1</alter>
					<octave>4</octave>
				</pitch>
				<duration>4</duration>
				<voice>1</voice>
				<type>half</type>
				<stem>down</stem>
			</note>
		</measure>
		<measure number="12" width="297.58">
			<note default-x="16.47" default-y="-25.00">
				<pitch>
					<step>A</step>
					<octave>4</octave>
				</pitch>
				<duration>8</duration>
				<voice>1</voice>
				<type>whole</type>
				<lyric number="1" default-x="3.26" default-y="-43.06" relative-y="-30.00">
					<syllabic>middle</syllabic>
					<text font-family="Times New Roman">ba</text>
				</lyric>
			</note>
			<note default-x="154.56" default-y="-20.00">
				<pitch>
					<step>B</step>
					<alter>-1</alter>
					<octave>4</octave>
				</pitch>
				<duration>8</duration>
				<voice>1</voice>
				<type>whole</type>
				<lyric number="1" default-x="11.84" default-y="-43.06" relative-y="-30.00">
					<syllabic>end</syllabic>
					<text font-family="Times New Roman">oth.</text>
				</lyric>
			</note>
		</measure>
		<measure number="13" width="319.20">
			<print new-page="yes">
				<system-layout>
					<system-margins>
						<left-margin>33.32</left-margin>
						<right-margin>0.00</right-margin>
					</system-margins>
					<top-system-distance>70.00</top-system-distance>
				</system-layout>
			</print>
			<note>
				<rest/>
				<duration>8</duration>
				<voice>1</voice>
				<type>whole</type>
			</note>
			<note>
				<rest/>
				<duration>4</duration>
				<voice>1</voice>
				<type>half</type>
			</note>
			<note default-x="238.28" default-y="5.00">
				<pitch>
					<step>G</step>
					<octave>5</octave>
				</pitch>
				<duration>4</duration>
				<voice>1</voice>
				<type>half</type>
				<stem>down</stem>
				<lyric number="1" default-x="6.94" default-y="-40.00" relative-y="-30.00">
					<syllabic>begin</syllabic>
					<text font-family="Times New Roman">glo</text>
				</lyric>
			</note>
		</measure>
		<measure number="14" width="218.80">
			<note default-x="13.32" default-y="-10.00">
				<pitch>
					<step>D</step>
					<octave>5</octave>
				</pitch>
				<duration>8</duration>
				<voice>1</voice>
				<type>whole</type>
				<lyric number="1" default-x="9.90" default-y="-40.00" relative-y="-30.00">
					<syllabic>middle</syllabic>
					<text font-family="Times New Roman">ri</text>
				</lyric>
			</note>
			<note default-x="113.60" default-y="0.00">
				<pitch>
					<step>F</step>
					<octave>5</octave>
				</pitch>
				<duration>8</duration>
				<voice>1</voice>
				<type>whole</type>
				<lyric number="1" default-x="9.90" default-y="-40.00" relative-y="-30.00">
					<syllabic>end</syllabic>
					<text font-family="Times New Roman">am</text>
				</lyric>
			</note>
		</measure>
		<measure number="15" width="248.27">
			<note default-x="13.32" default-y="-5.00">
				<pitch>
					<step>E</step>
					<octave>5</octave>
				</pitch>
				<duration>8</duration>
				<voice>1</voice>
				<type>whole</type>
				<lyric number="1" default-x="9.90" default-y="-40.00" relative-y="-30.00">
					<syllabic>begin</syllabic>
					<text font-family="Times New Roman">tu</text>
				</lyric>
			</note>
			<note default-x="131.29" default-y="-10.00">
				<pitch>
					<step>D</step>
					<octave>5</octave>
				</pitch>
				<duration>4</duration>
				<voice>1</voice>
				<type>half</type>
				<stem>down</stem>
				<lyric number="1" default-x="8.88" default-y="-40.00" relative-y="-30.00">
					<syllabic>end</syllabic>
					<text font-family="Times New Roman">am.</text>
				</lyric>
			</note>
			<note default-x="188.80" default-y="0.00">
				<pitch>
					<step>F</step>
					<octave>5</octave>
				</pitch>
				<duration>4</duration>
				<voice>1</voice>
				<type>half</type>
				<stem>down</stem>
				<lyric number="1" default-x="6.94" default-y="-40.00" relative-y="-30.00">
					<syllabic>begin</syllabic>
					<text font-family="Times New Roman">Ho</text>
				</lyric>
			</note>
		</measure>
		<measure number="16" width="247.13">
			<note default-x="13.73" default-y="-10.00">
				<pitch>
					<step>D</step>
					<octave>5</octave>
				</pitch>
				<duration>4</duration>
				<voice>1</voice>
				<type>half</type>
				<stem>down</stem>
				<lyric number="1" default-x="6.94" default-y="-40.00" relative-y="-30.00">
					<syllabic>middle</syllabic>
					<text font-family="Times New Roman">san</text>
				</lyric>
			</note>
			<note default-x="68.19" default-y="-5.00">
				<pitch>
					<step>E</step>
					<octave>5</octave>
				</pitch>
				<duration>6</duration>
				<voice>1</voice>
				<type>half</type>
				<dot/>
				<stem>down</stem>
				<lyric number="1" default-x="6.94" default-y="-40.00" relative-y="-30.00">
					<syllabic>end</syllabic>
					<text font-family="Times New Roman">na</text>
				</lyric>
			</note>
			<note default-x="157.04" default-y="-5.00">
				<pitch>
					<step>E</step>
					<octave>5</octave>
				</pitch>
				<duration>2</duration>
				<voice>1</voice>
				<type>quarter</type>
				<stem>down</stem>
				<lyric number="1" default-x="6.58" default-y="-40.00" relative-y="-30.00">
					<syllabic>single</syllabic>
					<text font-family="Times New Roman">in</text>
				</lyric>
			</note>
			<note default-x="190.72" default-y="-10.00">
				<pitch>
					<step>D</step>
					<octave>5</octave>
				</pitch>
				<duration>4</duration>
				<voice>1</voice>
				<type>half</type>
				<stem>down</stem>
				<lyric number="1" default-x="6.94" default-y="-40.00" relative-y="-30.00">
					<syllabic>begin</syllabic>
					<text font-family="Times New Roman">ex</text>
				</lyric>
			</note>
		</measure>
		<measure number="17" width="239.73">
			<note default-x="13.80" default-y="-15.00">
				<pitch>
					<step>C</step>
					<octave>5</octave>
				</pitch>
				<duration>12</duration>
				<voice>1</voice>
				<type>whole</type>
				<dot/>
				<lyric number="1" default-y="-40.00" relative-y="-30.00">
					<syllabic>middle</syllabic>
					<text font-family="Times New Roman">cel</text>
				</lyric>
			</note>
			<note default-x="185.77" default-y="-20.00">
				<pitch>
					<step>B</step>
					<alter>-1</alter>
					<octave>4</octave>
				</pitch>
				<duration>4</duration>
				<voice>1</voice>
				<type>half</type>
				<stem>down</stem>
			</note>
		</measure>
		<measure number="18" width="362.00">
			<print new-system="yes">
				<system-layout>
					<system-margins>
						<left-margin>33.32</left-margin>
						<right-margin>0.00</right-margin>
					</system-margins>
					<system-distance>150.00</system-distance>
				</system-layout>
			</print>
			<note default-x="80.47" default-y="-25.00">
				<pitch>
					<step>A</step>
					<octave>4</octave>
				</pitch>
				<duration>8</duration>
				<voice>1</voice>
				<type>whole</type>
			</note>
			<note default-x="206.37" default-y="-20.00">
				<pitch>
					<step>B</step>
					<alter>-1</alter>
					<octave>4</octave>
				</pitch>
				<duration>4</duration>
				<voice>1</voice>
				<type>half</type>
				<stem>down</stem>
				<lyric number="1" default-x="8.88" default-y="-43.54" relative-y="-30.00">
					<syllabic>end</syllabic>
					<text font-family="Times New Roman">sis.</text>
				</lyric>
			</note>
			<note default-x="283.20" default-y="-5.00">
				<pitch>
					<step>E</step>
					<alter>-1</alter>
					<octave>5</octave>
				</pitch>
				<duration>4</duration>
				<voice>1</voice>
				<type>half</type>
				<accidental>flat</accidental>
				<stem>down</stem>
				<lyric number="1" default-x="6.94" default-y="-43.54" relative-y="-30.00">
					<syllabic>begin</syllabic>
					<text font-style="italic" font-family="Times New Roman">Ho</text>
				</lyric>
			</note>
		</measure>
		<measure number="19" width="362.29">
			<note default-x="13.32" default-y="-10.00">
				<pitch>
					<step>D</step>
					<octave>5</octave>
				</pitch>
				<duration>8</duration>
				<voice>1</voice>
				<type>whole</type>
				<lyric number="1" default-x="9.90" default-y="-43.54" relative-y="-30.00">
					<syllabic>middle</syllabic>
					<text font-style="italic" font-family="Times New Roman">san</text>
				</lyric>
			</note>
			<note default-x="188.30" default-y="-10.00">
				<pitch>
					<step>D</step>
					<octave>5</octave>
				</pitch>
				<duration>4</duration>
				<voice>1</voice>
				<type>half</type>
				<stem>down</stem>
				<lyric number="1" default-x="6.94" default-y="-43.54" relative-y="-30.00">
					<syllabic>end</syllabic>
					<text font-style="italic" font-family="Times New Roman">na</text>
				</lyric>
			</note>
			<note default-x="283.87" default-y="-5.00">
				<pitch>
					<step>E</step>
					<alter>-1</alter>
					<octave>5</octave>
				</pitch>
				<duration>4</duration>
				<voice>1</voice>
				<type>half</type>
				<accidental>flat</accidental>
				<stem>down</stem>
				<lyric number="1" default-x="6.94" default-y="-43.54" relative-y="-30.00">
					<syllabic>single</syllabic>
					<text font-style="italic" font-family="Times New Roman">in</text>
				</lyric>
			</note>
		</measure>
		<measure number="20" width="315.56">
			<note default-x="13.80" default-y="-10.00">
				<pitch>
					<step>D</step>
					<octave>5</octave>
				</pitch>
				<duration>12</duration>
				<voice>1</voice>
				<type>whole</type>
				<dot/>
				<lyric number="1" default-x="9.90" default-y="-43.54" relative-y="-30.00">
					<syllabic>begin</syllabic>
					<text font-style="italic" font-family="Times New Roman">ex</text>
				</lyric>
			</note>
			<note default-x="239.39" default-y="-10.00">
				<pitch>
					<step>D</step>
					<octave>5</octave>
				</pitch>
				<duration>4</duration>
				<voice>1</voice>
				<type>half</type>
				<stem>down</stem>
				<lyric number="1" default-x="6.94" default-y="-43.54" relative-y="-30.00">
					<syllabic>middle</syllabic>
					<text font-style="italic" font-family="Times New Roman">cel</text>
				</lyric>
			</note>
		</measure>
		<measure number="21" width="233.28">
			<note default-x="14.89" default-y="-10.00">
				<pitch>
					<step>D</step>
					<octave>5</octave>
				</pitch>
				<duration>16</duration>
				<voice>1</voice>
				<type>breve</type>
				<notations>
					<fermata type="upright"/>
				</notations>
				<lyric number="1" default-x="12.45" default-y="-43.54" relative-y="-30.00">
					<syllabic>end</syllabic>
					<text font-style="italic" font-family="Times New Roman">sis.</text>
				</lyric>
			</note>
			<barline location="right">
				<bar-style>light-heavy</bar-style>
			</barline>
		</measure>
	</part>
	<part id="P2">
		<measure number="1" width="439.57">
			<print>
				<staff-layout number="1">
					<staff-distance>80.00</staff-distance>
				</staff-layout>
			</print>
			<attributes>
				<divisions>2</divisions>
				<key>
					<fifths>-1</fifths>
					<mode>major</mode>
				</key>
				<time>
					<beats>4</beats>
					<beat-type>2</beat-type>
				</time>
				<clef>
					<sign>G</sign>
					<line>2</line>
				</clef>
			</attributes>
			<note default-x="101.57" default-y="-150.00">
				<pitch>
					<step>G</step>
					<octave>4</octave>
				</pitch>
				<duration>12</duration>
				<voice>1</voice>
				<type>whole</type>
				<dot/>
				<lyric number="1" default-x="3.26" default-y="-40.19" relative-y="-30.00">
					<syllabic>begin</syllabic>
					<text font-family="Times New Roman">San</text>
				</lyric>
			</note>
			<note default-x="345.08" default-y="-155.00">
				<pitch>
					<step>F</step>
					<alter>1</alter>
					<octave>4</octave>
				</pitch>
				<duration>4</duration>
				<voice>1</voice>
				<type>half</type>
				<accidental>sharp</accidental>
				<stem>up</stem>
				<lyric number="1" default-x="8.16" default-y="-40.19" relative-y="-30.00">
					<syllabic>end</syllabic>
					<text font-family="Times New Roman">ctus,</text>
				</lyric>
			</note>
		</measure>
		<measure number="2" width="385.16">
			<note default-x="16.28" default-y="-150.00">
				<pitch>
					<step>G</step>
					<octave>4</octave>
				</pitch>
				<duration>4</duration>
				<voice>1</voice>
				<type>half</type>
				<stem>up</stem>
				<lyric number="1" default-y="-40.19" relative-y="-30.00">
					<syllabic>begin</syllabic>
					<text font-style="italic" font-family="Times New Roman">San</text>
				</lyric>
			</note>
			<note default-x="102.61" default-y="-165.00">
				<pitch>
					<step>D</step>
					<octave>4</octave>
				</pitch>
				<duration>4</duration>
				<voice>1</voice>
				<type>half</type>
				<stem>up</stem>
			</note>
			<note default-x="188.95" default-y="-155.00">
				<pitch>
					<step>F</step>
					<octave>4</octave>
				</pitch>
				<duration>4</duration>
				<voice>1</voice>
				<type>half</type>
				<stem>up</stem>
			</note>
			<note default-x="275.64" default-y="-160.00">
				<pitch>
					<step>E</step>
					<octave>4</octave>
				</pitch>
				<duration>2</duration>
				<voice>1</voice>
				<type>quarter</type>
				<stem>up</stem>
			</note>
			<note default-x="329.60" default-y="-165.00">
				<pitch>
					<step>D</step>
					<octave>4</octave>
				</pitch>
				<duration>2</duration>
				<voice>1</voice>
				<type>quarter</type>
				<stem>up</stem>
			</note>
		</measure>
		<measure number="3" width="383.88">
			<note default-x="16.28" default-y="-160.00">
				<pitch>
					<step>E</step>
					<octave>4</octave>
				</pitch>
				<duration>4</duration>
				<voice>1</voice>
				<type>half</type>
				<stem>up</stem>
			</note>
			<note default-x="107.69" default-y="-145.00">
				<pitch>
					<step>A</step>
					<octave>4</octave>
				</pitch>
				<duration>4</duration>
				<voice>1</voice>
				<type>half</type>
				<stem>up</stem>
				<lyric number="1" default-x="7.68" default-y="-40.19" relative-y="-30.00">
					<syllabic>end</syllabic>
					<text font-style="italic" font-family="Times New Roman">ctus,</text>
				</lyric>
			</note>
			<note default-x="196.14" default-y="-140.00">
				<pitch>
					<step>B</step>
					<alter>-1</alter>
					<octave>4</octave>
				</pitch>
				<duration>8</duration>
				<tie type="start"/>
				<voice>1</voice>
				<type>whole</type>
				<notations>
					<tied type="start"/>
				</notations>
				<lyric number="1" default-y="-40.19" relative-y="-30.00">
					<syllabic>begin</syllabic>
					<text font-family="Times New Roman">Do</text>
				</lyric>
			</note>
		</measure>
		<measure number="4" width="302.19">
			<print new-system="yes">
				<staff-layout number="1">
					<staff-distance>80.00</staff-distance>
				</staff-layout>
			</print>
			<note default-x="85.01" default-y="-140.00">
				<pitch>
					<step>B</step>
					<alter>-1</alter>
					<octave>4</octave>
				</pitch>
				<duration>4</duration>
				<tie type="stop"/>
				<voice>1</voice>
				<type>half</type>
				<stem>down</stem>
				<notations>
					<tied type="stop"/>
				</notations>
			</note>
			<note default-x="144.79" default-y="-145.00">
				<pitch>
					<step>A</step>
					<octave>4</octave>
				</pitch>
				<duration>4</duration>
				<voice>1</voice>
				<type>half</type>
				<stem>up</stem>
				<lyric number="1" default-x="6.22" default-y="-40.00" relative-y="-30.00">
					<syllabic>middle</syllabic>
					<text font-family="Times New Roman">mi</text>
				</lyric>
			</note>
			<note default-x="201.62" default-y="-140.00">
				<pitch>
					<step>B</step>
					<alter>-1</alter>
					<octave>4</octave>
				</pitch>
				<duration>8</duration>
				<voice>1</voice>
				<type>whole</type>
				<lyric number="1" default-x="9.90" default-y="-40.00" relative-y="-30.00">
					<syllabic>end</syllabic>
					<text font-family="Times New Roman">nus</text>
				</lyric>
			</note>
		</measure>
		<measure number="5" width="200.06">
			<note default-x="14.89" default-y="-145.00">
				<pitch>
					<step>A</step>
					<octave>4</octave>
				</pitch>
				<duration>16</duration>
				<voice>1</voice>
				<type>breve</type>
				<lyric number="1" default-x="1.69" default-y="-40.00" relative-y="-30.00">
					<syllabic>begin</syllabic>
					<text font-family="Times New Roman">De</text>
				</lyric>
			</note>
		</measure>
		<measure number="6" width="213.89">
			<note default-x="13.32" default-y="-145.00">
				<pitch>
					<step>A</step>
					<octave>4</octave>
				</pitch>
				<duration>12</duration>
				<voice>1</voice>
				<type>whole</type>
				<dot/>
				<lyric number="1" default-x="3.26" default-y="-40.00" relative-y="-30.00">
					<syllabic>end</syllabic>
					<text font-family="Times New Roman">us</text>
				</lyric>
			</note>
			<note default-x="144.47" default-y="-145.00">
				<pitch>
					<step>A</step>
					<octave>4</octave>
				</pitch>
				<duration>4</duration>
				<voice>1</voice>
				<type>half</type>
				<stem>up</stem>
				<lyric number="1" default-y="-40.00" relative-y="-30.00">
					<syllabic>begin</syllabic>
					<text font-family="Times New Roman">Sa</text>
				</lyric>
			</note>
		</measure>
		<measure number="7" width="277.73">
			<note default-x="12.76" default-y="-140.00">
				<pitch>
					<step>B</step>
					<alter>-1</alter>
					<octave>4</octave>
				</pitch>
				<duration>4</duration>
				<voice>1</voice>
				<type>half</type>
				<stem>down</stem>
			</note>
			<note default-x="90.11" default-y="-150.00">
				<pitch>
					<step>G</step>
					<octave>4</octave>
				</pitch>
				<duration>4</duration>
				<voice>1</voice>
				<type>half</type>
				<stem>up</stem>
			</note>
			<note default-x="149.04" default-y="-145.00">
				<pitch>
					<step>A</step>
					<octave>4</octave>
				</pitch>
				<duration>8</duration>
				<tie type="start"/>
				<voice>1</voice>
				<type>whole</type>
				<notations>
					<tied type="start"/>
				</notations>
				<lyric number="1" default-y="-40.00" relative-y="-30.00">
					<syllabic>middle</syllabic>
					<text font-family="Times New Roman">ba</text>
				</lyric>
			</note>
		</measure>
		<measure number="8" width="279.27">
			<note default-x="13.32" default-y="-145.00">
				<pitch>
					<step>A</step>
					<octave>4</octave>
				</pitch>
				<duration>8</duration>
				<tie type="stop"/>
				<voice>1</voice>
				<type>whole</type>
				<notations>
					<tied type="stop"/>
				</notations>
			</note>
			<note default-x="129.33" default-y="-155.00">
				<pitch>
					<step>F</step>
					<octave>4</octave>
				</pitch>
				<duration>8</duration>
				<voice>1</voice>
				<type>whole</type>
				<lyric number="1" default-x="5.20" default-y="-40.00" relative-y="-30.00">
					<syllabic>end</syllabic>
					<text font-family="Times New Roman">oth.</text>
				</lyric>
			</note>
		</measure>
		<measure number="9" width="360.48">
			<print new-system="yes">
				<staff-layout number="1">
					<staff-distance>80.00</staff-distance>
				</staff-layout>
			</print>
			<note>
				<rest/>
				<duration>8</duration>
				<voice>1</voice>
				<type>whole</type>
			</note>
			<note>
				<rest/>
				<duration>4</duration>
				<voice>1</voice>
				<type>half</type>
			</note>
			<note default-x="289.01" default-y="-130.00">
				<pitch>
					<step>D</step>
					<octave>5</octave>
				</pitch>
				<duration>4</duration>
				<voice>1</voice>
				<type>half</type>
				<stem>down</stem>
				<lyric number="1" default-x="6.94" default-y="-42.09" relative-y="-30.00">
					<syllabic>begin</syllabic>
					<text font-family="Times New Roman">Ple</text>
				</lyric>
			</note>
		</measure>
		<measure number="10" width="331.51">
			<note default-x="18.63" default-y="-150.00">
				<pitch>
					<step>G</step>
					<octave>4</octave>
				</pitch>
				<duration>4</duration>
				<voice>1</voice>
				<type>half</type>
				<stem>up</stem>
				<lyric number="1" default-x="6.22" default-y="-42.09" relative-y="-30.00">
					<syllabic>end</syllabic>
					<text font-family="Times New Roman">ni</text>
				</lyric>
			</note>
			<note default-x="105.00" default-y="-140.00">
				<pitch>
					<step>B</step>
					<alter>-1</alter>
					<octave>4</octave>
				</pitch>
				<duration>4</duration>
				<voice>1</voice>
				<type>half</type>
				<stem>down</stem>
				<lyric number="1" default-x="6.94" default-y="-42.09" relative-y="-30.00">
					<syllabic>single</syllabic>
					<text font-family="Times New Roman">sunt</text>
				</lyric>
			</note>
			<note default-x="171.13" default-y="-145.00">
				<pitch>
					<step>A</step>
					<octave>4</octave>
				</pitch>
				<duration>8</duration>
				<voice>1</voice>
				<type>whole</type>
				<lyric number="1" default-x="3.26" default-y="-42.09" relative-y="-30.00">
					<syllabic>begin</syllabic>
					<text font-family="Times New Roman">cae</text>
				</lyric>
			</note>
		</measure>
		<measure number="11" width="283.55">
			<note default-x="10.36" default-y="-150.00">
				<pitch>
					<step>G</step>
					<octave>4</octave>
				</pitch>
				<duration>4</duration>
				<voice>1</voice>
				<type>half</type>
				<stem>up</stem>
				<lyric number="1" default-x="6.22" default-y="-42.09" relative-y="-30.00">
					<syllabic>end</syllabic>
					<text font-family="Times New Roman">li</text>
				</lyric>
			</note>
			<note default-x="78.17" default-y="-150.00">
				<pitch>
					<step>G</step>
					<octave>4</octave>
				</pitch>
				<duration>4</duration>
				<voice>1</voice>
				<type>half</type>
				<stem>up</stem>
				<lyric number="1" default-x="6.22" default-y="-42.09" relative-y="-30.00">
					<syllabic>single</syllabic>
					<text font-family="Times New Roman">et</text>
				</lyric>
			</note>
			<note default-x="143.02" default-y="-150.00">
				<pitch>
					<step>G</step>
					<octave>4</octave>
				</pitch>
				<duration>8</duration>
				<tie type="start"/>
				<voice>1</voice>
				<type>whole</type>
				<notations>
					<tied type="start"/>
				</notations>
				<lyric number="1" default-y="-42.09" relative-y="-30.00">
					<syllabic>begin</syllabic>
					<text font-family="Times New Roman">ter</text>
				</lyric>
			</note>
		</measure>
		<measure number="12" width="297.58">
			<note default-x="19.43" default-y="-150.00">
				<pitch>
					<step>G</step>
					<octave>4</octave>
				</pitch>
				<duration>4</duration>
				<tie type="stop"/>
				<voice>1</voice>
				<type>half</type>
				<stem>up</stem>
				<notations>
					<tied type="stop"/>
				</notations>
			</note>
			<note default-x="88.48" default-y="-155.00">
				<pitch>
					<step>F</step>
					<alter>1</alter>
					<octave>4</octave>
				</pitch>
				<duration>4</duration>
				<voice>1</voice>
				<type>half</type>
				<accidental>sharp</accidental>
				<stem>up</stem>
				<lyric number="1" default-x="6.22" default-y="-42.09" relative-y="-30.00">
					<syllabic>end</syllabic>
					<text font-family="Times New Roman">ra</text>
				</lyric>
			</note>
			<note default-x="157.52" default-y="-150.00">
				<pitch>
					<step>G</step>
					<octave>4</octave>
				</pitch>
				<duration>4</duration>
				<voice>1</voice>
				<type>half</type>
				<stem>up</stem>
				<lyric number="1" default-x="6.22" default-y="-42.09" relative-y="-30.00">
					<syllabic>begin</syllabic>
					<text font-family="Times New Roman">glo</text>
				</lyric>
			</note>
			<note default-x="226.57" default-y="-150.00">
				<pitch>
					<step>G</step>
					<octave>4</octave>
				</pitch>
				<duration>4</duration>
				<voice>1</voice>
				<type>half</type>
				<stem>up</stem>
				<lyric number="1" default-x="6.22" default-y="-42.09" relative-y="-30.00">
					<syllabic>middle</syllabic>
					<text font-family="Times New Roman">ri</text>
				</lyric>
			</note>
		</measure>
		<measure number="13" width="319.20">
			<print new-page="yes">
				<staff-layout number="1">
					<staff-distance>80.00</staff-distance>
				</staff-layout>
			</print>
			<note default-x="96.65" default-y="-145.00">
				<pitch>
					<step>A</step>
					<octave>4</octave>
				</pitch>
				<duration>4</duration>
				<voice>1</voice>
				<type>half</type>
				<stem>up</stem>
				<lyric number="1" default-x="6.22" default-y="-40.00" relative-y="-30.00">
					<syllabic>end</syllabic>
					<text font-family="Times New Roman">am</text>
				</lyric>
			</note>
			<note default-x="143.86" default-y="-145.00">
				<pitch>
					<step>A</step>
					<octave>4</octave>
				</pitch>
				<duration>4</duration>
				<voice>1</voice>
				<type>half</type>
				<stem>up</stem>
				<lyric number="1" default-y="-40.00" relative-y="-30.00">
					<syllabic>begin</syllabic>
					<text font-family="Times New Roman">tu</text>
				</lyric>
			</note>
			<note default-x="191.07" default-y="-140.00">
				<pitch>
					<step>B</step>
					<alter>-1</alter>
					<octave>4</octave>
				</pitch>
				<duration>6</duration>
				<voice>1</voice>
				<type>half</type>
				<dot/>
				<stem>down</stem>
			</note>
			<note default-x="272.97" default-y="-145.00">
				<pitch>
					<step>A</step>
					<octave>4</octave>
				</pitch>
				<duration>1</duration>
				<voice>1</voice>
				<type>eighth</type>
				<stem>up</stem>
				<beam number="1">begin</beam>
			</note>
			<note default-x="294.43" default-y="-150.00">
				<pitch>
					<step>G</step>
					<octave>4</octave>
				</pitch>
				<duration>1</duration>
				<voice>1</voice>
				<type>eighth</type>
				<stem>up</stem>
				<beam number="1">end</beam>
			</note>
		</measure>
		<measure number="14" width="218.80">
			<note default-x="16.28" default-y="-155.00">
				<pitch>
					<step>F</step>
					<octave>4</octave>
				</pitch>
				<duration>4</duration>
				<voice>1</voice>
				<type>half</type>
				<stem>up</stem>
			</note>
			<note default-x="66.42" default-y="-150.00">
				<pitch>
					<step>G</step>
					<octave>4</octave>
				</pitch>
				<duration>4</duration>
				<voice>1</voice>
				<type>half</type>
				<stem>up</stem>
			</note>
			<note default-x="113.60" default-y="-145.00">
				<pitch>
					<step>A</step>
					<octave>4</octave>
				</pitch>
				<duration>8</duration>
				<tie type="start"/>
				<voice>1</voice>
				<type>whole</type>
				<notations>
					<tied type="start"/>
				</notations>
				<lyric number="1" default-x="0.49" default-y="-40.00" relative-y="-30.00">
					<syllabic>end</syllabic>
					<text font-family="Times New Roman">am.</text>
					<extend/>
				</lyric>
			</note>
		</measure>
		<measure number="15" width="248.27">
			<note default-x="11.75" default-y="-145.00">
				<pitch>
					<step>A</step>
					<octave>4</octave>
				</pitch>
				<duration>16</duration>
				<tie type="stop"/>
				<voice>1</voice>
				<type>breve</type>
				<notations>
					<tied type="stop"/>
				</notations>
			</note>
		</measure>
		<measure number="16" width="247.13">
			<note>
				<rest/>
				<duration>8</duration>
				<voice>1</voice>
				<type>whole</type>
			</note>
			<note default-x="119.68" default-y="-150.00">
				<pitch>
					<step>G</step>
					<octave>4</octave>
				</pitch>
				<duration>8</duration>
				<tie type="start"/>
				<voice>1</voice>
				<type>whole</type>
				<notations>
					<tied type="start"/>
				</notations>
				<lyric number="1" default-y="-40.00" relative-y="-30.00">
					<syllabic>begin</syllabic>
					<text font-family="Times New Roman">Ho</text>
				</lyric>
			</note>
		</measure>
		<measure number="17" width="239.73">
			<note default-x="12.23" default-y="-150.00">
				<pitch>
					<step>G</step>
					<octave>4</octave>
				</pitch>
				<duration>16</duration>
				<tie type="stop"/>
				<voice>1</voice>
				<type>breve</type>
				<notations>
					<tied type="stop"/>
				</notations>
			</note>
		</measure>
		<measure number="18" width="362.00">
			<print new-system="yes">
				<staff-layout number="1">
					<staff-distance>83.78</staff-distance>
				</staff-layout>
			</print>
			<note default-x="80.47" default-y="-158.78">
				<pitch>
					<step>F</step>
					<octave>4</octave>
				</pitch>
				<duration>8</duration>
				<voice>1</voice>
				<type>whole</type>
				<lyric number="1" default-x="3.26" default-y="-40.00" relative-y="-30.00">
					<syllabic>middle</syllabic>
					<text font-family="Times New Roman">san</text>
				</lyric>
			</note>
			<note default-x="203.41" default-y="-153.78">
				<pitch>
					<step>G</step>
					<octave>4</octave>
				</pitch>
				<duration>8</duration>
				<voice>1</voice>
				<type>whole</type>
				<lyric number="1" default-x="3.26" default-y="-40.00" relative-y="-30.00">
					<syllabic>end</syllabic>
					<text font-family="Times New Roman">na</text>
				</lyric>
			</note>
		</measure>
		<measure number="19" width="362.29">
			<note default-x="13.32" default-y="-143.78">
				<pitch>
					<step>B</step>
					<alter>-1</alter>
					<octave>4</octave>
				</pitch>
				<duration>8</duration>
				<voice>1</voice>
				<type>whole</type>
				<lyric number="1" default-x="9.90" default-y="-40.00" relative-y="-30.00">
					<syllabic>single</syllabic>
					<text font-family="Times New Roman">in</text>
				</lyric>
			</note>
			<note default-x="185.34" default-y="-148.78">
				<pitch>
					<step>A</step>
					<octave>4</octave>
				</pitch>
				<duration>8</duration>
				<tie type="start"/>
				<voice>1</voice>
				<type>whole</type>
				<notations>
					<tied type="start"/>
				</notations>
				<lyric number="1" default-y="-40.00" relative-y="-30.00">
					<syllabic>begin</syllabic>
					<text font-family="Times New Roman">ex</text>
				</lyric>
			</note>
		</measure>
		<measure number="20" width="315.56">
			<note default-x="16.76" default-y="-148.78">
				<pitch>
					<step>A</step>
					<octave>4</octave>
				</pitch>
				<duration>4</duration>
				<tie type="stop"/>
				<voice>1</voice>
				<type>half</type>
				<stem>up</stem>
				<notations>
					<tied type="stop"/>
				</notations>
			</note>
			<note default-x="90.97" default-y="-148.78">
				<pitch>
					<step>A</step>
					<octave>4</octave>
				</pitch>
				<duration>4</duration>
				<voice>1</voice>
				<type>half</type>
				<stem>up</stem>
				<lyric number="1" default-x="6.22" default-y="-40.00" relative-y="-30.00">
					<syllabic>middle</syllabic>
					<text font-family="Times New Roman">cel</text>
				</lyric>
			</note>
			<note default-x="162.22" default-y="-153.78">
				<pitch>
					<step>G</step>
					<octave>4</octave>
				</pitch>
				<duration>8</duration>
				<tie type="start"/>
				<voice>1</voice>
				<type>whole</type>
				<notations>
					<tied type="start"/>
				</notations>
				<lyric number="1" default-x="0.49" default-y="-40.00" relative-y="-30.00">
					<syllabic>end</syllabic>
					<text font-family="Times New Roman">sis.</text>
					<extend/>
				</lyric>
			</note>
		</measure>
		<measure number="21" width="233.28">
			<note default-x="14.89" default-y="-153.78">
				<pitch>
					<step>G</step>
					<octave>4</octave>
				</pitch>
				<duration>16</duration>
				<tie type="stop"/>
				<voice>1</voice>
				<type>breve</type>
				<notations>
					<tied type="stop"/>
					<fermata type="upright"/>
				</notations>
			</note>
			<barline location="right">
				<bar-style>light-heavy</bar-style>
			</barline>
		</measure>
	</part>
	<part id="P3">
		<measure number="1" width="439.57">
			<print>
				<staff-layout number="1">
					<staff-distance>80.00</staff-distance>
				</staff-layout>
			</print>
			<attributes>
				<divisions>2</divisions>
				<key>
					<fifths>-1</fifths>
					<mode>major</mode>
				</key>
				<time>
					<beats>4</beats>
					<beat-type>2</beat-type>
				</time>
				<clef>
					<sign>G</sign>
					<line>2</line>
					<clef-octave-change>-1</clef-octave-change>
				</clef>
			</attributes>
			<note>
				<rest/>
				<duration>8</duration>
				<voice>1</voice>
				<type>whole</type>
			</note>
			<note>
				<rest/>
				<duration>4</duration>
				<voice>1</voice>
				<type>half</type>
			</note>
			<note default-x="345.08" default-y="-250.00">
				<pitch>
					<step>D</step>
					<octave>4</octave>
				</pitch>
				<duration>4</duration>
				<voice>1</voice>
				<type>half</type>
				<stem>down</stem>
				<lyric number="1" default-x="6.94" default-y="-43.54" relative-y="-30.00">
					<syllabic>begin</syllabic>
					<text font-family="Times New Roman">San</text>
				</lyric>
			</note>
		</measure>
		<measure number="2" width="385.16">
			<note default-x="16.28" default-y="-270.00">
				<pitch>
					<step>G</step>
					<octave>3</octave>
				</pitch>
				<duration>4</duration>
				<voice>1</voice>
				<type>half</type>
				<stem>up</stem>
				<lyric number="1" default-x="8.16" default-y="-43.54" relative-y="-30.00">
					<syllabic>end</syllabic>
					<text font-family="Times New Roman">ctus,</text>
				</lyric>
			</note>
			<note default-x="102.61" default-y="-260.00">
				<pitch>
					<step>B</step>
					<alter>-1</alter>
					<octave>3</octave>
				</pitch>
				<duration>4</duration>
				<voice>1</voice>
				<type>half</type>
				<stem>down</stem>
				<lyric number="1" default-y="-43.54" relative-y="-30.00">
					<syllabic>begin</syllabic>
					<text font-style="italic" font-family="Times New Roman">San</text>
				</lyric>
			</note>
			<note default-x="185.99" default-y="-265.00">
				<pitch>
					<step>A</step>
					<octave>3</octave>
				</pitch>
				<duration>8</duration>
				<tie type="start"/>
				<voice>1</voice>
				<type>whole</type>
				<notations>
					<tied type="start"/>
				</notations>
			</note>
		</measure>
		<measure number="3" width="383.88">
			<note default-x="13.32" default-y="-265.00">
				<pitch>
					<step>A</step>
					<octave>3</octave>
				</pitch>
				<duration>8</duration>
				<tie type="stop"/>
				<voice>1</voice>
				<type>whole</type>
				<notations>
					<tied type="stop"/>
				</notations>
			</note>
			<note default-x="196.14" default-y="-270.00">
				<pitch>
					<step>G</step>
					<octave>3</octave>
				</pitch>
				<duration>8</duration>
				<voice>1</voice>
				<type>whole</type>
				<lyric number="1" default-x="4.72" default-y="-43.54" relative-y="-30.00">
					<syllabic>end</syllabic>
					<text font-style="italic" font-family="Times New Roman">ctus,</text>
				</lyric>
			</note>
		</measure>
		<measure number="4" width="302.19">
			<print new-system="yes">
				<staff-layout number="1">
					<staff-distance>80.00</staff-distance>
				</staff-layout>
			</print>
			<note>
				<rest/>
				<duration>8</duration>
				<voice>1</voice>
				<type>whole</type>
			</note>
			<note default-x="201.62" default-y="-250.00">
				<pitch>
					<step>D</step>
					<octave>4</octave>
				</pitch>
				<duration>8</duration>
				<tie type="start"/>
				<voice>1</voice>
				<type>whole</type>
				<notations>
					<tied type="start"/>
				</notations>
				<lyric number="1" default-y="-40.00" relative-y="-30.00">
					<syllabic>begin</syllabic>
					<text font-family="Times New Roman">Do</text>
				</lyric>
			</note>
		</measure>
		<measure number="5" width="200.06">
			<note default-x="16.47" default-y="-250.00">
				<pitch>
					<step>D</step>
					<octave>4</octave>
				</pitch>
				<duration>8</duration>
				<tie type="stop"/>
				<voice>1</voice>
				<type>whole</type>
				<notations>
					<tied type="stop"/>
				</notations>
			</note>
			<note default-x="92.78" default-y="-255.00">
				<pitch>
					<step>C</step>
					<octave>4</octave>
				</pitch>
				<duration>8</duration>
				<tie type="start"/>
				<voice>1</voice>
				<type>whole</type>
				<notations>
					<tied type="start"/>
				</notations>
				<lyric number="1" default-y="-40.00" relative-y="-30.00">
					<syllabic>middle</syllabic>
					<text font-family="Times New Roman">mi</text>
				</lyric>
			</note>
		</measure>
		<measure number="6" width="213.89">
			<note default-x="13.32" default-y="-255.00">
				<pitch>
					<step>C</step>
					<octave>4</octave>
				</pitch>
				<duration>8</duration>
				<tie type="stop"/>
				<voice>1</voice>
				<type>whole</type>
				<notations>
					<tied type="stop"/>
				</notations>
			</note>
			<note default-x="87.53" default-y="-250.00">
				<pitch>
					<step>D</step>
					<octave>4</octave>
				</pitch>
				<duration>8</duration>
				<voice>1</voice>
				<type>whole</type>
				<lyric number="1" default-x="9.90" default-y="-40.00" relative-y="-30.00">
					<syllabic>end</syllabic>
					<text font-family="Times New Roman">nus</text>
				</lyric>
			</note>
		</measure>
		<measure number="7" width="277.73">
			<note default-x="12.76" default-y="-250.00">
				<pitch>
					<step>D</step>
					<octave>4</octave>
				</pitch>
				<duration>4</duration>
				<voice>1</voice>
				<type>half</type>
				<stem>down</stem>
				<lyric number="1" default-x="6.94" default-y="-40.00" relative-y="-30.00">
					<syllabic>begin</syllabic>
					<text font-family="Times New Roman">De</text>
				</lyric>
			</note>
			<note default-x="90.11" default-y="-250.00">
				<pitch>
					<step>D</step>
					<octave>4</octave>
				</pitch>
				<duration>4</duration>
				<voice>1</voice>
				<type>half</type>
				<stem>down</stem>
				<lyric number="1" default-x="6.94" default-y="-40.00" relative-y="-30.00">
					<syllabic>end</syllabic>
					<text font-family="Times New Roman">us</text>
				</lyric>
			</note>
			<note default-x="149.04" default-y="-240.00">
				<pitch>
					<step>F</step>
					<octave>4</octave>
				</pitch>
				<duration>8</duration>
				<voice>1</voice>
				<type>whole</type>
				<lyric number="1" default-x="9.90" default-y="-40.00" relative-y="-30.00">
					<syllabic>begin</syllabic>
					<text font-family="Times New Roman">Sa</text>
				</lyric>
			</note>
		</measure>
		<measure number="8" width="279.27">
			<note default-x="13.32" default-y="-245.00">
				<pitch>
					<step>E</step>
					<octave>4</octave>
				</pitch>
				<duration>8</duration>
				<voice>1</voice>
				<type>whole</type>
				<lyric number="1" default-x="9.90" default-y="-40.00" relative-y="-30.00">
					<syllabic>middle</syllabic>
					<text font-family="Times New Roman">ba</text>
				</lyric>
			</note>
			<note default-x="129.33" default-y="-250.00">
				<pitch>
					<step>D</step>
					<octave>4</octave>
				</pitch>
				<duration>8</duration>
				<voice>1</voice>
				<type>whole</type>
				<lyric number="1" default-x="11.84" default-y="-40.00" relative-y="-30.00">
					<syllabic>end</syllabic>
					<text font-family="Times New Roman">oth.</text>
				</lyric>
			</note>
		</measure>
		<measure number="9" width="360.48">
			<print new-system="yes">
				<staff-layout number="1">
					<staff-distance>80.00</staff-distance>
				</staff-layout>
			</print>
			<note>
				<rest/>
				<duration>4</duration>
				<voice>1</voice>
				<type>half</type>
			</note>
			<note default-x="147.03" default-y="-235.00">
				<pitch>
					<step>G</step>
					<octave>4</octave>
				</pitch>
				<duration>8</duration>
				<voice>1</voice>
				<type>whole</type>
				<lyric number="1" default-x="9.90" default-y="-40.00" relative-y="-30.00">
					<syllabic>begin</syllabic>
					<text font-family="Times New Roman">Ple</text>
				</lyric>
			</note>
			<note default-x="289.01" default-y="-240.00">
				<pitch>
					<step>F</step>
					<octave>4</octave>
				</pitch>
				<duration>4</duration>
				<voice>1</voice>
				<type>half</type>
				<stem>down</stem>
				<lyric number="1" default-x="6.94" default-y="-40.00" relative-y="-30.00">
					<syllabic>end</syllabic>
					<text font-family="Times New Roman">ni</text>
				</lyric>
			</note>
		</measure>
		<measure number="10" width="331.51">
			<note default-x="18.63" default-y="-235.00">
				<pitch>
					<step>G</step>
					<octave>4</octave>
				</pitch>
				<duration>4</duration>
				<voice>1</voice>
				<type>half</type>
				<stem>down</stem>
				<lyric number="1" default-x="6.94" default-y="-40.00" relative-y="-30.00">
					<syllabic>single</syllabic>
					<text font-family="Times New Roman">sunt</text>
				</lyric>
			</note>
			<note default-x="105.00" default-y="-250.00">
				<pitch>
					<step>D</step>
					<octave>4</octave>
				</pitch>
				<duration>4</duration>
				<voice>1</voice>
				<type>half</type>
				<stem>down</stem>
				<lyric number="1" default-x="6.94" default-y="-40.00" relative-y="-30.00">
					<syllabic>begin</syllabic>
					<text font-family="Times New Roman">cae</text>
				</lyric>
			</note>
			<note default-x="174.09" default-y="-240.00">
				<pitch>
					<step>F</step>
					<octave>4</octave>
				</pitch>
				<duration>4</duration>
				<voice>1</voice>
				<type>half</type>
				<stem>down</stem>
				<lyric number="1" default-x="6.94" default-y="-40.00" relative-y="-30.00">
					<syllabic>end</syllabic>
					<text font-family="Times New Roman">li</text>
				</lyric>
			</note>
			<note default-x="243.18" default-y="-240.00">
				<pitch>
					<step>F</step>
					<octave>4</octave>
				</pitch>
				<duration>4</duration>
				<tie type="start"/>
				<voice>1</voice>
				<type>half</type>
				<stem>down</stem>
				<notations>
					<tied type="start"/>
				</notations>
				<lyric number="1" default-y="-40.00" relative-y="-30.00">
					<syllabic>single</syllabic>
					<text font-family="Times New Roman">et</text>
					<extend/>
				</lyric>
			</note>
		</measure>
		<measure number="11" width="283.55">
			<note default-x="10.36" default-y="-240.00">
				<pitch>
					<step>F</step>
					<octave>4</octave>
				</pitch>
				<duration>4</duration>
				<tie type="stop"/>
				<voice>1</voice>
				<type>half</type>
				<stem>down</stem>
				<notations>
					<tied type="stop"/>
				</notations>
			</note>
			<note default-x="78.17" default-y="-245.00">
				<pitch>
					<step>E</step>
					<alter>-1</alter>
					<octave>4</octave>
				</pitch>
				<duration>4</duration>
				<voice>1</voice>
				<type>half</type>
				<accidental>flat</accidental>
				<stem>down</stem>
				<lyric number="1" default-x="6.94" default-y="-40.00" relative-y="-30.00">
					<syllabic>begin</syllabic>
					<text font-family="Times New Roman">ter</text>
				</lyric>
			</note>
			<note default-x="143.02" default-y="-250.00">
				<pitch>
					<step>D</step>
					<octave>4</octave>
				</pitch>
				<duration>8</duration>
				<tie type="start"/>
				<voice>1</voice>
				<type>whole</type>
				<notations>
					<tied type="start"/>
				</notations>
				<lyric number="1" default-y="-40.00" relative-y="-30.00">
					<syllabic>end</syllabic>
					<text font-family="Times New Roman">ra</text>
					<extend/>
				</lyric>
			</note>
		</measure>
		<measure number="12" width="297.58">
			<note default-x="14.89" default-y="-250.00">
				<pitch>
					<step>D</step>
					<octave>4</octave>
				</pitch>
				<duration>16</duration>
				<tie type="stop"/>
				<tie type="start"/>
				<voice>1</voice>
				<type>breve</type>
				<notations>
					<tied type="stop"/>
					<tied type="start"/>
				</notations>
			</note>
		</measure>
		<measure number="13" width="319.20">
			<print new-page="yes">
				<staff-layout number="1">
					<staff-distance>80.00</staff-distance>
				</staff-layout>
			</print>
			<note default-x="93.69" default-y="-250.00">
				<pitch>
					<step>D</step>
					<octave>4</octave>
				</pitch>
				<duration>8</duration>
				<tie type="stop"/>
				<voice>1</voice>
				<type>whole</type>
				<notations>
					<tied type="stop"/>
				</notations>
			</note>
			<note default-x="188.11" default-y="-250.00">
				<pitch>
					<step>D</step>
					<octave>4</octave>
				</pitch>
				<duration>8</duration>
				<tie type="start"/>
				<voice>1</voice>
				<type>whole</type>
				<notations>
					<tied type="start"/>
				</notations>
				<lyric number="1" default-y="-40.00" relative-y="-30.00">
					<syllabic>begin</syllabic>
					<text font-family="Times New Roman">glo</text>
				</lyric>
			</note>
		</measure>
		<measure number="14" width="218.80">
			<note default-x="16.28" default-y="-250.00">
				<pitch>
					<step>D</step>
					<octave>4</octave>
				</pitch>
				<duration>4</duration>
				<tie type="stop"/>
				<voice>1</voice>
				<type>half</type>
				<stem>down</stem>
				<notations>
					<tied type="stop"/>
				</notations>
			</note>
			<note default-x="66.42" default-y="-250.00">
				<pitch>
					<step>D</step>
					<octave>4</octave>
				</pitch>
				<duration>4</duration>
				<voice>1</voice>
				<type>half</type>
				<stem>down</stem>
				<lyric number="1" default-x="6.94" default-y="-40.00" relative-y="-30.00">
					<syllabic>middle</syllabic>
					<text font-family="Times New Roman">ri</text>
				</lyric>
			</note>
			<note default-x="116.56" default-y="-255.00">
				<pitch>
					<step>C</step>
					<alter>1</alter>
					<octave>4</octave>
				</pitch>
				<duration>4</duration>
				<voice>1</voice>
				<type>half</type>
				<accidental>sharp</accidental>
				<stem>down</stem>
				<lyric number="1" default-x="6.94" default-y="-40.00" relative-y="-30.00">
					<syllabic>end</syllabic>
					<text font-family="Times New Roman">am</text>
				</lyric>
			</note>
			<note default-x="166.70" default-y="-250.00">
				<pitch>
					<step>D</step>
					<octave>4</octave>
				</pitch>
				<duration>4</duration>
				<tie type="start"/>
				<voice>1</voice>
				<type>half</type>
				<stem>down</stem>
				<notations>
					<tied type="start"/>
				</notations>
				<lyric number="1" default-y="-40.00" relative-y="-30.00">
					<syllabic>begin</syllabic>
					<text font-family="Times New Roman">tu</text>
				</lyric>
			</note>
		</measure>
		<measure number="15" width="248.27">
			<note default-x="16.28" default-y="-250.00">
				<pitch>
					<step>D</step>
					<octave>4</octave>
				</pitch>
				<duration>4</duration>
				<tie type="stop"/>
				<voice>1</voice>
				<type>half</type>
				<stem>down</stem>
				<notations>
					<tied type="stop"/>
				</notations>
			</note>
			<note default-x="73.79" default-y="-255.00">
				<pitch>
					<step>C</step>
					<alter>1</alter>
					<octave>4</octave>
				</pitch>
				<duration>4</duration>
				<voice>1</voice>
				<type>half</type>
				<accidental>sharp</accidental>
				<stem>down</stem>
			</note>
			<note default-x="128.34" default-y="-250.00">
				<pitch>
					<step>D</step>
					<octave>4</octave>
				</pitch>
				<duration>8</duration>
				<voice>1</voice>
				<type>whole</type>
				<lyric number="1" default-x="11.84" default-y="-40.00" relative-y="-30.00">
					<syllabic>end</syllabic>
					<text font-family="Times New Roman">am.</text>
				</lyric>
			</note>
		</measure>
		<measure number="16" width="247.13">
			<note>
				<rest/>
				<duration>4</duration>
				<voice>1</voice>
				<type>half</type>
			</note>
			<note default-x="68.19" default-y="-235.00">
				<pitch>
					<step>G</step>
					<octave>4</octave>
				</pitch>
				<duration>4</duration>
				<voice>1</voice>
				<type>half</type>
				<stem>down</stem>
				<lyric number="1" default-x="6.94" default-y="-40.00" relative-y="-30.00">
					<syllabic>begin</syllabic>
					<text font-family="Times New Roman">Ho</text>
				</lyric>
			</note>
			<note default-x="122.64" default-y="-245.00">
				<pitch>
					<step>E</step>
					<octave>4</octave>
				</pitch>
				<duration>4</duration>
				<voice>1</voice>
				<type>half</type>
				<stem>down</stem>
				<lyric number="1" default-x="6.94" default-y="-40.00" relative-y="-30.00">
					<syllabic>middle</syllabic>
					<text font-family="Times New Roman">san</text>
				</lyric>
			</note>
			<note default-x="190.72" default-y="-240.00">
				<pitch>
					<step>F</step>
					<octave>4</octave>
				</pitch>
				<duration>4</duration>
				<tie type="start"/>
				<voice>1</voice>
				<type>half</type>
				<stem>down</stem>
				<notations>
					<tied type="start"/>
				</notations>
				<lyric number="1" default-y="-40.00" relative-y="-30.00">
					<syllabic>end</syllabic>
					<text font-family="Times New Roman">na</text>
					<extend/>
				</lyric>
			</note>
		</measure>
		<measure number="17" width="239.73">
			<note default-x="17.12" default-y="-240.00">
				<pitch>
					<step>F</step>
					<octave>4</octave>
				</pitch>
				<duration>2</duration>
				<tie type="stop"/>
				<voice>1</voice>
				<type>quarter</type>
				<stem>down</stem>
				<notations>
					<tied type="stop"/>
				</notations>
			</note>
			<note default-x="49.62" default-y="-240.00">
				<pitch>
					<step>F</step>
					<octave>4</octave>
				</pitch>
				<duration>2</duration>
				<voice>1</voice>
				<type>quarter</type>
				<stem>down</stem>
				<lyric number="1" default-x="6.58" default-y="-40.00" relative-y="-30.00">
					<syllabic>single</syllabic>
					<text font-family="Times New Roman">in</text>
				</lyric>
			</note>
			<note default-x="81.76" default-y="-245.00">
				<pitch>
					<step>E</step>
					<alter>-1</alter>
					<octave>4</octave>
				</pitch>
				<duration>4</duration>
				<voice>1</voice>
				<type>half</type>
				<accidental>flat</accidental>
				<stem>down</stem>
				<lyric number="1" default-x="6.94" default-y="-40.00" relative-y="-30.00">
					<syllabic>begin</syllabic>
					<text font-family="Times New Roman">ex</text>
				</lyric>
			</note>
			<note default-x="130.80" default-y="-250.00">
				<pitch>
					<step>D</step>
					<octave>4</octave>
				</pitch>
				<duration>8</duration>
				<tie type="start"/>
				<voice>1</voice>
				<type>whole</type>
				<notations>
					<tied type="start"/>
				</notations>
				<lyric number="1" default-y="-40.00" relative-y="-30.00">
					<syllabic>middle</syllabic>
					<text font-family="Times New Roman">cel</text>
				</lyric>
			</note>
		</measure>
		<measure number="18" width="362.00">
			<print new-system="yes">
				<staff-layout number="1">
					<staff-distance>80.00</staff-distance>
				</staff-layout>
			</print>
			<note default-x="80.47" default-y="-253.78">
				<pitch>
					<step>D</step>
					<octave>4</octave>
				</pitch>
				<duration>8</duration>
				<tie type="stop"/>
				<voice>1</voice>
				<type>whole</type>
				<notations>
					<tied type="stop"/>
				</notations>
			</note>
			<note default-x="206.37" default-y="-273.78">
				<pitch>
					<step>G</step>
					<octave>3</octave>
				</pitch>
				<duration>4</duration>
				<voice>1</voice>
				<type>half</type>
				<stem>up</stem>
				<lyric number="1" default-x="8.16" default-y="-40.00" relative-y="-30.00">
					<syllabic>end</syllabic>
					<text font-family="Times New Roman">sis.</text>
				</lyric>
			</note>
			<note default-x="283.20" default-y="-238.78">
				<pitch>
					<step>G</step>
					<octave>4</octave>
				</pitch>
				<duration>4</duration>
				<tie type="start"/>
				<voice>1</voice>
				<type>half</type>
				<stem>down</stem>
				<notations>
					<tied type="start"/>
				</notations>
				<lyric number="1" default-y="-40.00" relative-y="-30.00">
					<syllabic>single</syllabic>
					<text font-family="Times New Roman">In</text>
					<extend/>
				</lyric>
			</note>
		</measure>
		<measure number="19" width="362.29">
			<note default-x="16.28" default-y="-238.78">
				<pitch>
					<step>G</step>
					<octave>4</octave>
				</pitch>
				<duration>4</duration>
				<tie type="stop"/>
				<voice>1</voice>
				<type>half</type>
				<stem>down</stem>
				<notations>
					<tied type="stop"/>
				</notations>
			</note>
			<note default-x="93.10" default-y="-243.78">
				<pitch>
					<step>F</step>
					<alter>1</alter>
					<octave>4</octave>
				</pitch>
				<duration>2</duration>
				<voice>1</voice>
				<type>quarter</type>
				<accidental>sharp</accidental>
				<stem>down</stem>
				<lyric number="1" default-y="-40.00" relative-y="-30.00">
					<syllabic>begin</syllabic>
					<text font-family="Times New Roman">ex</text>
				</lyric>
			</note>
			<note default-x="140.88" default-y="-248.78">
				<pitch>
					<step>E</step>
					<octave>4</octave>
				</pitch>
				<duration>2</duration>
				<voice>1</voice>
				<type>quarter</type>
				<stem>down</stem>
			</note>
			<note default-x="188.66" default-y="-243.78">
				<pitch>
					<step>F</step>
					<alter>1</alter>
					<octave>4</octave>
				</pitch>
				<duration>2</duration>
				<voice>1</voice>
				<type>quarter</type>
				<stem>down</stem>
			</note>
			<note default-x="236.45" default-y="-253.78">
				<pitch>
					<step>D</step>
					<octave>4</octave>
				</pitch>
				<duration>2</duration>
				<voice>1</voice>
				<type>quarter</type>
				<stem>down</stem>
			</note>
			<note default-x="283.87" default-y="-238.78">
				<pitch>
					<step>G</step>
					<octave>4</octave>
				</pitch>
				<duration>4</duration>
				<tie type="start"/>
				<voice>1</voice>
				<type>half</type>
				<stem>down</stem>
				<notations>
					<tied type="start"/>
				</notations>
				<lyric number="1" default-y="-40.00" relative-y="-30.00">
					<syllabic>middle</syllabic>
					<text font-family="Times New Roman">cel</text>
				</lyric>
			</note>
		</measure>
		<measure number="20" width="315.56">
			<note default-x="16.76" default-y="-238.78">
				<pitch>
					<step>G</step>
					<octave>4</octave>
				</pitch>
				<duration>4</duration>
				<tie type="stop"/>
				<voice>1</voice>
				<type>half</type>
				<stem>down</stem>
				<notations>
					<tied type="stop"/>
				</notations>
			</note>
			<note default-x="90.97" default-y="-243.78">
				<pitch>
					<step>F</step>
					<alter>1</alter>
					<octave>4</octave>
				</pitch>
				<duration>4</duration>
				<voice>1</voice>
				<type>half</type>
				<accidental>sharp</accidental>
				<stem>down</stem>
			</note>
			<note default-x="162.22" default-y="-238.78">
				<pitch>
					<step>G</step>
					<octave>4</octave>
				</pitch>
				<duration>8</duration>
				<tie type="start"/>
				<voice>1</voice>
				<type>whole</type>
				<notations>
					<tied type="start"/>
				</notations>
				<lyric number="1" default-x="0.49" default-y="-40.00" relative-y="-30.00">
					<syllabic>end</syllabic>
					<text font-family="Times New Roman">sis.</text>
					<extend/>
				</lyric>
			</note>
		</measure>
		<measure number="21" width="233.28">
			<note default-x="14.89" default-y="-238.78">
				<pitch>
					<step>G</step>
					<octave>4</octave>
				</pitch>
				<duration>16</duration>
				<tie type="stop"/>
				<voice>1</voice>
				<type>breve</type>
				<notations>
					<tied type="stop"/>
					<fermata type="upright"/>
				</notations>
			</note>
			<barline location="right">
				<bar-style>light-heavy</bar-style>
			</barline>
		</measure>
	</part>
	<part id="P4">
		<measure number="1" width="439.57">
			<print>
				<staff-layout number="1">
					<staff-distance>80.00</staff-distance>
				</staff-layout>
			</print>
			<attributes>
				<divisions>2</divisions>
				<key>
					<fifths>-1</fifths>
					<mode>major</mode>
				</key>
				<time>
					<beats>4</beats>
					<beat-type>2</beat-type>
				</time>
				<clef>
					<sign>F</sign>
					<line>4</line>
				</clef>
			</attributes>
			<note>
				<rest/>
				<duration>16</duration>
				<voice>1</voice>
			</note>
		</measure>
		<measure number="2" width="385.16">
			<note>
				<rest/>
				<duration>16</duration>
				<voice>1</voice>
			</note>
		</measure>
		<measure number="3" width="383.88">
			<note>
				<rest/>
				<duration>8</duration>
				<voice>1</voice>
				<type>whole</type>
			</note>
			<note>
				<rest/>
				<duration>4</duration>
				<voice>1</voice>
				<type>half</type>
			</note>
			<note default-x="290.51" default-y="-365.00">
				<pitch>
					<step>G</step>
					<octave>3</octave>
				</pitch>
				<duration>4</duration>
				<tie type="start"/>
				<voice>1</voice>
				<type>half</type>
				<stem>down</stem>
				<notations>
					<tied type="start"/>
				</notations>
				<lyric number="1" default-y="-40.00" relative-y="-30.00">
					<syllabic>begin</syllabic>
					<text font-family="Times New Roman">San</text>
				</lyric>
			</note>
		</measure>
		<measure number="4" width="302.19">
			<print new-system="yes">
				<staff-layout number="1">
					<staff-distance>80.00</staff-distance>
				</staff-layout>
			</print>
			<note default-x="85.01" default-y="-365.00">
				<pitch>
					<step>G</step>
					<octave>3</octave>
				</pitch>
				<duration>4</duration>
				<tie type="stop"/>
				<voice>1</voice>
				<type>half</type>
				<stem>down</stem>
				<notations>
					<tied type="stop"/>
				</notations>
			</note>
			<note default-x="144.79" default-y="-370.00">
				<pitch>
					<step>F</step>
					<alter>1</alter>
					<octave>3</octave>
				</pitch>
				<duration>4</duration>
				<voice>1</voice>
				<type>half</type>
				<accidental>sharp</accidental>
				<stem>down</stem>
				<lyric number="1" default-x="8.88" default-y="-43.06" relative-y="-30.00">
					<syllabic>end</syllabic>
					<text font-family="Times New Roman">ctus,</text>
				</lyric>
			</note>
			<note default-x="201.62" default-y="-365.00">
				<pitch>
					<step>G</step>
					<octave>3</octave>
				</pitch>
				<duration>8</duration>
				<voice>1</voice>
				<type>whole</type>
				<lyric number="1" default-y="-43.06" relative-y="-30.00">
					<syllabic>begin</syllabic>
					<text font-style="italic" font-family="Times New Roman">San</text>
				</lyric>
			</note>
		</measure>
		<measure number="5" width="200.06">
			<note default-x="16.47" default-y="-380.00">
				<pitch>
					<step>D</step>
					<octave>3</octave>
				</pitch>
				<duration>8</duration>
				<voice>1</voice>
				<type>whole</type>
			</note>
			<note default-x="95.74" default-y="-370.00">
				<pitch>
					<step>F</step>
					<octave>3</octave>
				</pitch>
				<duration>6</duration>
				<voice>1</voice>
				<type>half</type>
				<dot/>
				<stem>down</stem>
			</note>
			<note default-x="163.77" default-y="-365.00">
				<pitch>
					<step>G</step>
					<octave>3</octave>
				</pitch>
				<duration>2</duration>
				<voice>1</voice>
				<type>quarter</type>
				<stem>down</stem>
			</note>
		</measure>
		<measure number="6" width="213.89">
			<note default-x="13.32" default-y="-360.00">
				<pitch>
					<step>A</step>
					<octave>3</octave>
				</pitch>
				<duration>8</duration>
				<voice>1</voice>
				<type>whole</type>
				<lyric number="1" default-x="11.36" default-y="-43.06" relative-y="-30.00">
					<syllabic>end</syllabic>
					<text font-style="italic" font-family="Times New Roman">ctus,</text>
				</lyric>
			</note>
			<note>
				<rest/>
				<duration>4</duration>
				<voice>1</voice>
				<type>half</type>
			</note>
			<note default-x="144.47" default-y="-345.00">
				<pitch>
					<step>D</step>
					<octave>4</octave>
				</pitch>
				<duration>4</duration>
				<voice>1</voice>
				<type>half</type>
				<stem>down</stem>
				<lyric number="1" default-x="6.94" default-y="-43.06" relative-y="-30.00">
					<syllabic>begin</syllabic>
					<text font-family="Times New Roman">Do</text>
				</lyric>
			</note>
		</measure>
		<measure number="7" width="277.73">
			<note default-x="12.76" default-y="-365.00">
				<pitch>
					<step>G</step>
					<octave>3</octave>
				</pitch>
				<duration>4</duration>
				<voice>1</voice>
				<type>half</type>
				<stem>down</stem>
				<lyric number="1" default-x="6.94" default-y="-43.06" relative-y="-30.00">
					<syllabic>middle</syllabic>
					<text font-family="Times New Roman">mi</text>
				</lyric>
			</note>
			<note default-x="90.11" default-y="-355.00">
				<pitch>
					<step>B</step>
					<alter>-1</alter>
					<octave>3</octave>
				</pitch>
				<duration>4</duration>
				<voice>1</voice>
				<type>half</type>
				<stem>down</stem>
				<lyric number="1" default-x="6.94" default-y="-43.06" relative-y="-30.00">
					<syllabic>end</syllabic>
					<text font-family="Times New Roman">nus</text>
				</lyric>
			</note>
			<note default-x="149.04" default-y="-360.00">
				<pitch>
					<step>A</step>
					<octave>3</octave>
				</pitch>
				<duration>8</duration>
				<tie type="start"/>
				<voice>1</voice>
				<type>whole</type>
				<notations>
					<tied type="start"/>
				</notations>
				<lyric number="1" default-y="-43.06" relative-y="-30.00">
					<syllabic>begin</syllabic>
					<text font-family="Times New Roman">De</text>
				</lyric>
			</note>
		</measure>
		<measure number="8" width="279.27">
			<note default-x="16.28" default-y="-360.00">
				<pitch>
					<step>A</step>
					<octave>3</octave>
				</pitch>
				<duration>4</duration>
				<tie type="stop"/>
				<voice>1</voice>
				<type>half</type>
				<stem>down</stem>
				<notations>
					<tied type="stop"/>
				</notations>
			</note>
			<note default-x="74.29" default-y="-360.00">
				<pitch>
					<step>A</step>
					<octave>3</octave>
				</pitch>
				<duration>4</duration>
				<voice>1</voice>
				<type>half</type>
				<stem>down</stem>
				<lyric number="1" default-x="6.94" default-y="-43.06" relative-y="-30.00">
					<syllabic>end</syllabic>
					<text font-family="Times New Roman">us</text>
				</lyric>
			</note>
			<note default-x="132.65" default-y="-380.00">
				<pitch>
					<step>D</step>
					<octave>3</octave>
				</pitch>
				<duration>2</duration>
				<voice>1</voice>
				<type>quarter</type>
				<stem>down</stem>
				<lyric number="1" default-y="-43.06" relative-y="-30.00">
					<syllabic>begin</syllabic>
					<text font-family="Times New Roman">Sa</text>
				</lyric>
			</note>
			<note default-x="168.91" default-y="-375.00">
				<pitch>
					<step>E</step>
					<octave>3</octave>
				</pitch>
				<duration>2</duration>
				<voice>1</voice>
				<type>quarter</type>
				<stem>down</stem>
			</note>
			<note default-x="205.16" default-y="-370.00">
				<pitch>
					<step>F</step>
					<octave>3</octave>
				</pitch>
				<duration>2</duration>
				<voice>1</voice>
				<type>quarter</type>
				<stem>down</stem>
			</note>
			<note default-x="241.41" default-y="-365.00">
				<pitch>
					<step>G</step>
					<octave>3</octave>
				</pitch>
				<duration>2</duration>
				<voice>1</voice>
				<type>quarter</type>
				<stem>down</stem>
			</note>
		</measure>
		<measure number="9" width="360.48">
			<print new-system="yes">
				<staff-layout number="1">
					<staff-distance>93.60</staff-distance>
				</staff-layout>
			</print>
			<note default-x="80.47" default-y="-373.60">
				<pitch>
					<step>A</step>
					<octave>3</octave>
				</pitch>
				<duration>4</duration>
				<voice>1</voice>
				<type>half</type>
				<stem>down</stem>
			</note>
			<note default-x="149.99" default-y="-368.60">
				<pitch>
					<step>B</step>
					<alter>-1</alter>
					<octave>3</octave>
				</pitch>
				<duration>4</duration>
				<voice>1</voice>
				<type>half</type>
				<stem>down</stem>
				<lyric number="1" default-x="6.94" default-y="-40.00" relative-y="-30.00">
					<syllabic>middle</syllabic>
					<text font-family="Times New Roman">ba</text>
				</lyric>
			</note>
			<note default-x="219.50" default-y="-363.60">
				<pitch>
					<step>C</step>
					<octave>4</octave>
				</pitch>
				<duration>4</duration>
				<voice>1</voice>
				<type>half</type>
				<stem>down</stem>
				<lyric number="1" default-x="8.88" default-y="-40.00" relative-y="-30.00">
					<syllabic>end</syllabic>
					<text font-family="Times New Roman">oth.</text>
				</lyric>
			</note>
			<note default-x="289.01" default-y="-358.60">
				<pitch>
					<step>D</step>
					<octave>4</octave>
				</pitch>
				<duration>4</duration>
				<voice>1</voice>
				<type>half</type>
				<stem>down</stem>
				<lyric number="1" default-x="6.94" default-y="-40.00" relative-y="-30.00">
					<syllabic>begin</syllabic>
					<text font-family="Times New Roman">Ple</text>
				</lyric>
			</note>
		</measure>
		<measure number="10" width="331.51">
			<note default-x="18.63" default-y="-353.60">
				<pitch>
					<step>E</step>
					<alter>-1</alter>
					<octave>4</octave>
				</pitch>
				<duration>4</duration>
				<voice>1</voice>
				<type>half</type>
				<accidental>flat</accidental>
				<stem>down</stem>
				<lyric number="1" default-x="6.94" default-y="-40.00" relative-y="-30.00">
					<syllabic>end</syllabic>
					<text font-family="Times New Roman">ni</text>
				</lyric>
			</note>
			<note default-x="105.00" default-y="-368.60">
				<pitch>
					<step>B</step>
					<alter>-1</alter>
					<octave>3</octave>
				</pitch>
				<duration>4</duration>
				<voice>1</voice>
				<type>half</type>
				<stem>down</stem>
				<lyric number="1" default-x="6.94" default-y="-40.00" relative-y="-30.00">
					<syllabic>single</syllabic>
					<text font-family="Times New Roman">sunt</text>
				</lyric>
			</note>
			<note default-x="174.09" default-y="-358.60">
				<pitch>
					<step>D</step>
					<octave>4</octave>
				</pitch>
				<duration>6</duration>
				<voice>1</voice>
				<type>half</type>
				<dot/>
				<stem>down</stem>
				<lyric number="1" default-x="6.94" default-y="-40.00" relative-y="-30.00">
					<syllabic>begin</syllabic>
					<text font-family="Times New Roman">cae</text>
				</lyric>
			</note>
			<note default-x="286.73" default-y="-363.60">
				<pitch>
					<step>C</step>
					<octave>4</octave>
				</pitch>
				<duration>2</duration>
				<voice>1</voice>
				<type>quarter</type>
				<stem>down</stem>
				<lyric number="1" default-x="6.58" default-y="-40.00" relative-y="-30.00">
					<syllabic>end</syllabic>
					<text font-family="Times New Roman">li</text>
				</lyric>
			</note>
		</measure>
		<measure number="11" width="283.55">
			<note default-x="10.36" default-y="-368.60">
				<pitch>
					<step>B</step>
					<alter>-1</alter>
					<octave>3</octave>
				</pitch>
				<duration>4</duration>
				<voice>1</voice>
				<type>half</type>
				<stem>down</stem>
				<lyric number="1" default-x="6.94" default-y="-40.00" relative-y="-30.00">
					<syllabic>single</syllabic>
					<text font-family="Times New Roman">et</text>
				</lyric>
			</note>
			<note default-x="78.17" default-y="-363.60">
				<pitch>
					<step>C</step>
					<octave>4</octave>
				</pitch>
				<duration>4</duration>
				<voice>1</voice>
				<type>half</type>
				<stem>down</stem>
				<lyric number="1" default-x="6.94" default-y="-40.00" relative-y="-30.00">
					<syllabic>begin</syllabic>
					<text font-family="Times New Roman">ter</text>
				</lyric>
			</note>
			<note default-x="143.02" default-y="-378.60">
				<pitch>
					<step>G</step>
					<octave>3</octave>
				</pitch>
				<duration>8</duration>
				<voice>1</voice>
				<type>whole</type>
				<lyric number="1" default-x="9.90" default-y="-40.00" relative-y="-30.00">
					<syllabic>end</syllabic>
					<text font-family="Times New Roman">ra</text>
				</lyric>
			</note>
		</measure>
		<measure number="12" width="297.58">
			<note>
				<rest/>
				<duration>8</duration>
				<voice>1</voice>
				<type>whole</type>
			</note>
			<note default-x="154.56" default-y="-378.60">
				<pitch>
					<step>G</step>
					<octave>3</octave>
				</pitch>
				<duration>8</duration>
				<voice>1</voice>
				<type>whole</type>
				<lyric number="1" default-x="9.90" default-y="-40.00" relative-y="-30.00">
					<syllabic>begin</syllabic>
					<text font-family="Times New Roman">glo</text>
				</lyric>
			</note>
		</measure>
		<measure number="13" width="319.20">
			<print new-page="yes">
				<staff-layout number="1">
					<staff-distance>80.00</staff-distance>
				</staff-layout>
			</print>
			<note default-x="93.69" default-y="-370.00">
				<pitch>
					<step>F</step>
					<alter>1</alter>
					<octave>3</octave>
				</pitch>
				<duration>8</duration>
				<voice>1</voice>
				<type>whole</type>
				<accidental>sharp</accidental>
				<lyric number="1" default-x="9.90" default-y="-43.06" relative-y="-30.00">
					<syllabic>middle</syllabic>
					<text font-family="Times New Roman">ri</text>
				</lyric>
			</note>
			<note default-x="188.11" default-y="-365.00">
				<pitch>
					<step>G</step>
					<octave>3</octave>
				</pitch>
				<duration>8</duration>
				<voice>1</voice>
				<type>whole</type>
				<lyric number="1" default-x="9.90" default-y="-43.06" relative-y="-30.00">
					<syllabic>end</syllabic>
					<text font-family="Times New Roman">am</text>
				</lyric>
			</note>
		</measure>
		<measure number="14" width="218.80">
			<note default-x="13.32" default-y="-355.00">
				<pitch>
					<step>B</step>
					<alter>-1</alter>
					<octave>3</octave>
				</pitch>
				<duration>8</duration>
				<voice>1</voice>
				<type>whole</type>
				<lyric number="1" default-x="9.90" default-y="-43.06" relative-y="-30.00">
					<syllabic>begin</syllabic>
					<text font-family="Times New Roman">tu</text>
				</lyric>
			</note>
			<note default-x="113.60" default-y="-360.00">
				<pitch>
					<step>A</step>
					<octave>3</octave>
				</pitch>
				<duration>8</duration>
				<tie type="start"/>
				<voice>1</voice>
				<type>whole</type>
				<notations>
					<tied type="start"/>
				</notations>
				<lyric number="1" default-x="0.49" default-y="-43.06" relative-y="-30.00">
					<syllabic>end</syllabic>
					<text font-family="Times New Roman">am.</text>
					<extend/>
				</lyric>
			</note>
		</measure>
		<measure number="15" width="248.27">
			<note default-x="13.32" default-y="-360.00">
				<pitch>
					<step>A</step>
					<octave>3</octave>
				</pitch>
				<duration>8</duration>
				<tie type="stop"/>
				<voice>1</voice>
				<type>whole</type>
				<notations>
					<tied type="stop"/>
				</notations>
			</note>
			<note default-x="131.29" default-y="-380.00">
				<pitch>
					<step>D</step>
					<octave>3</octave>
				</pitch>
				<duration>4</duration>
				<voice>1</voice>
				<type>half</type>
				<stem>down</stem>
				<lyric number="1" default-x="6.94" default-y="-43.06" relative-y="-30.00">
					<syllabic>begin</syllabic>
					<text font-family="Times New Roman">Ho</text>
				</lyric>
			</note>
			<note default-x="188.80" default-y="-345.00">
				<pitch>
					<step>D</step>
					<octave>4</octave>
				</pitch>
				<duration>4</duration>
				<voice>1</voice>
				<type>half</type>
				<stem>down</stem>
				<lyric number="1" default-y="-43.06" relative-y="-30.00">
					<syllabic>middle</syllabic>
					<text font-family="Times New Roman">san</text>
				</lyric>
			</note>
		</measure>
		<measure number="16" width="247.13">
			<note default-x="13.73" default-y="-355.00">
				<pitch>
					<step>B</step>
					<alter>-1</alter>
					<octave>3</octave>
				</pitch>
				<duration>4</duration>
				<voice>1</voice>
				<type>half</type>
				<stem>down</stem>
			</note>
			<note default-x="68.19" default-y="-350.00">
				<pitch>
					<step>C</step>
					<octave>4</octave>
				</pitch>
				<duration>6</duration>
				<voice>1</voice>
				<type>half</type>
				<dot/>
				<stem>down</stem>
				<lyric number="1" default-x="6.94" default-y="-43.06" relative-y="-30.00">
					<syllabic>end</syllabic>
					<text font-family="Times New Roman">na</text>
				</lyric>
			</note>
			<note default-x="157.04" default-y="-350.00">
				<pitch>
					<step>C</step>
					<octave>4</octave>
				</pitch>
				<duration>2</duration>
				<voice>1</voice>
				<type>quarter</type>
				<stem>down</stem>
				<lyric number="1" default-x="6.58" default-y="-43.06" relative-y="-30.00">
					<syllabic>single</syllabic>
					<text font-family="Times New Roman">in</text>
				</lyric>
			</note>
			<note default-x="190.72" default-y="-355.00">
				<pitch>
					<step>B</step>
					<alter>-1</alter>
					<octave>3</octave>
				</pitch>
				<duration>4</duration>
				<voice>1</voice>
				<type>half</type>
				<stem>down</stem>
				<lyric number="1" default-x="6.94" default-y="-43.06" relative-y="-30.00">
					<syllabic>begin</syllabic>
					<text font-family="Times New Roman">ex</text>
				</lyric>
			</note>
		</measure>
		<measure number="17" width="239.73">
			<note default-x="13.80" default-y="-350.00">
				<pitch>
					<step>C</step>
					<octave>4</octave>
				</pitch>
				<duration>8</duration>
				<voice>1</voice>
				<type>whole</type>
				<lyric number="1" default-x="9.90" default-y="-43.06" relative-y="-30.00">
					<syllabic>middle</syllabic>
					<text font-family="Times New Roman">cel</text>
				</lyric>
			</note>
			<note default-x="130.80" default-y="-365.00">
				<pitch>
					<step>G</step>
					<octave>3</octave>
				</pitch>
				<duration>8</duration>
				<voice>1</voice>
				<type>whole</type>
				<lyric number="1" default-x="11.84" default-y="-43.06" relative-y="-30.00">
					<syllabic>end</syllabic>
					<text font-family="Times New Roman">sis.</text>
				</lyric>
			</note>
		</measure>
		<measure number="18" width="362.00">
			<print new-system="yes">
				<staff-layout number="1">
					<staff-distance>80.45</staff-distance>
				</staff-layout>
			</print>
			<note>
				<rest/>
				<duration>8</duration>
				<voice>1</voice>
				<type>whole</type>
			</note>
			<note>
				<rest/>
				<duration>4</duration>
				<voice>1</voice>
				<type>half</type>
			</note>
			<note default-x="283.20" default-y="-344.23">
				<pitch>
					<step>E</step>
					<alter>-1</alter>
					<octave>4</octave>
				</pitch>
				<duration>4</duration>
				<voice>1</voice>
				<type>half</type>
				<accidental>flat</accidental>
				<stem>down</stem>
				<lyric number="1" default-x="6.94" default-y="-40.00" relative-y="-30.00">
					<syllabic>begin</syllabic>
					<text font-family="Times New Roman">Ho</text>
				</lyric>
			</note>
		</measure>
		<measure number="19" width="362.29">
			<note default-x="16.28" default-y="-359.23">
				<pitch>
					<step>B</step>
					<alter>-1</alter>
					<octave>3</octave>
				</pitch>
				<duration>4</duration>
				<voice>1</voice>
				<type>half</type>
				<stem>down</stem>
				<lyric number="1" default-x="6.94" default-y="-40.00" relative-y="-30.00">
					<syllabic>middle</syllabic>
					<text font-family="Times New Roman">san</text>
				</lyric>
			</note>
			<note default-x="92.73" default-y="-349.23">
				<pitch>
					<step>D</step>
					<octave>4</octave>
				</pitch>
				<duration>6</duration>
				<voice>1</voice>
				<type>half</type>
				<dot/>
				<stem>down</stem>
				<lyric number="1" default-x="6.94" default-y="-40.00" relative-y="-30.00">
					<syllabic>end</syllabic>
					<text font-family="Times New Roman">na</text>
				</lyric>
			</note>
			<note default-x="236.45" default-y="-349.23">
				<pitch>
					<step>D</step>
					<octave>4</octave>
				</pitch>
				<duration>2</duration>
				<voice>1</voice>
				<type>quarter</type>
				<stem>down</stem>
				<lyric number="1" default-x="6.58" default-y="-40.00" relative-y="-30.00">
					<syllabic>single</syllabic>
					<text font-family="Times New Roman">in</text>
				</lyric>
			</note>
			<note default-x="283.87" default-y="-354.23">
				<pitch>
					<step>C</step>
					<octave>4</octave>
				</pitch>
				<duration>4</duration>
				<voice>1</voice>
				<type>half</type>
				<stem>down</stem>
				<lyric number="1" default-x="6.94" default-y="-40.00" relative-y="-30.00">
					<syllabic>begin</syllabic>
					<text font-family="Times New Roman">ex</text>
				</lyric>
			</note>
		</measure>
		<measure number="20" width="315.56">
			<note default-x="13.80" default-y="-349.23">
				<pitch>
					<step>D</step>
					<octave>4</octave>
				</pitch>
				<duration>8</duration>
				<voice>1</voice>
				<type>whole</type>
				<lyric number="1" default-x="9.90" default-y="-40.00" relative-y="-30.00">
					<syllabic>end</syllabic>
					<text font-family="Times New Roman">cel</text>
				</lyric>
			</note>
			<note default-x="162.22" default-y="-369.23">
				<pitch>
					<step>G</step>
					<octave>3</octave>
				</pitch>
				<duration>8</duration>
				<tie type="start"/>
				<voice>1</voice>
				<type>whole</type>
				<notations>
					<tied type="start"/>
				</notations>
				<lyric number="1" default-x="0.49" default-y="-40.00" relative-y="-30.00">
					<syllabic>single</syllabic>
					<text font-family="Times New Roman">sis.</text>
					<extend/>
				</lyric>
			</note>
		</measure>
		<measure number="21" width="233.28">
			<note default-x="14.89" default-y="-369.23">
				<pitch>
					<step>G</step>
					<octave>3</octave>
				</pitch>
				<duration>16</duration>
				<tie type="stop"/>
				<voice>1</voice>
				<type>breve</type>
				<notations>
					<tied type="stop"/>
					<fermata type="upright"/>
				</notations>
			</note>
			<barline location="right">
				<bar-style>light-heavy</bar-style>
			</barline>
		</measure>
	</part>
</score-partwise>
